<svg xmlns="http://www.w3.org/2000/svg" xmlns:xlink="http://www.w3.org/1999/xlink" viewBox="0 0 266 250" preserveAspectRatio="xMidYMid" style="display: block; shape-rendering: auto; background: rgb(210, 211, 212);" width="266" height="250"><style type="text/css">
  .ld-text text {
    text-anchor: middle;
    dominant-baseline: middle;
    font-size: 80px;
    opacity: 0;
    user-select: none;
    pointer-events: none;
  }
</style>
<g style="transform-origin:133px 125px;transform:scale(1)" class="ld-text">
<g transform="translate(133,125)">
  <g transform="scale(1.0000) translate(0,0)"><g class="path" style="opacity: 1; transform-origin: -441.16px -2.72px; transform: matrix3d(0.87, 0, 0, 0, 0, 0.87, 0, 0, 0, 0, 0.87, 0, 0, 0, 0, 1); animation: 1s linear -0.6336s infinite normal forwards running animate-g7msouemixe; transform-box: view-box;"><path d="M102.24 36.56L103.28 37.92Q100.24 40.96 95.40 40.96Q90.56 40.96 87.68 37.80Q84.80 34.64 84.80 29.48Q84.80 24.32 86.64 17.60L86.64 17.60L90.24 5.76Q83.52 14.24 77.92 22L77.92 22Q66.88 37.28 62.96 42.48L62.96 42.48L61.52 42.08L58.40 3.36L52 15.04Q42.88 32.24 36.76 37.72Q30.64 43.20 20.48 43.20L20.48 43.20Q11.84 43.20 6.16 37.04L6.16 37.04Q1.68 32 1.68 24.96L1.68 24.96Q1.68 23.68 1.84 22.32L1.84 22.32L3.44 22.48Q3.28 23.76 3.28 24.96L3.28 24.96Q3.28 31.44 7.36 35.92L7.36 35.92Q12.56 41.60 20.48 41.60L20.48 41.60Q30 41.60 35.84 36.28Q41.68 30.96 50.56 14.32L50.56 14.32L64.96-11.84Q56.48-12 48.52-14.52Q40.56-17.04 34.28-17.04Q28-17.04 23.76-12.64Q19.52-8.24 19.52-1.28L19.52-1.28L17.92-1.28Q17.92-8.96 22.60-13.80Q27.28-18.64 34.72-18.64L34.72-18.64Q40.72-18.64 49-16.04Q57.28-13.44 66.88-13.44L66.88-13.44L70.24 29.76L71.84 27.52Q88.72 4.32 97.92-5.64Q107.12-15.60 112.80-15.60L112.80-15.60L112.80-14Q110.32-14 106.48-11.28L106.48-11.28Q105.92-9.52 102.72 0.92Q99.52 11.36 97 19.16Q94.48 26.96 94.48 31.92Q94.48 36.88 96.24 39.28L96.24 39.28Q97.92 39.28 99.40 38.60Q100.88 37.92 101.60 37.20L101.60 37.20L102.24 36.56" style="fill: rgb(253, 253, 253);" transform="translate(-498.400,-14.998)"></path></g><g class="path" style="opacity: 1; transform-origin: -370.96px -0.2px; transform: matrix3d(0.87, 0, 0, 0, 0, 0.87, 0, 0, 0, 0, 0.87, 0, 0, 0, 0, 1); animation: 1s linear -0.6072s infinite normal forwards running animate-g7msouemixe; transform-box: view-box;"><path d="M138.40 30.72L138.40 30.72Q131.36 30.72 130.72 24.56L130.72 24.56Q127.20 30.72 121.84 30.72Q116.48 30.72 113.32 27.48Q110.16 24.24 110.16 18.40L110.16 18.40Q110.16 9.28 114.64 4.08Q119.12-1.12 126.24-1.12L126.24-1.12Q132.08-1.12 134 4.40L134 4.40Q134.40 2 134.88-0.40L134.88-0.40Q140.80-0.40 143.68-0.88L143.68-0.88L144.72-1.12L139.20 29.12Q141.60 28.88 143.20 26.88L143.20 26.88L144.40 27.84Q142 30.72 138.40 30.72 zM119.20 22.48Q119.20 26.08 120.12 27.48Q121.04 28.88 122.96 28.88Q124.88 28.88 126.88 26.80L126.88 26.80Q129.52 24.08 131.12 19.92L131.12 19.92Q131.36 18.88 132.04 14.92Q132.72 10.96 133.20 8.40L133.20 8.40Q132.96 5.36 131.52 3.12Q130.08 0.88 127.92 0.88L127.92 0.88Q124 0.88 121.60 7.88Q119.20 14.88 119.20 22.48L119.20 22.48" style="fill: rgb(253, 253, 253);" transform="translate(-498.400,-14.998)"></path></g><g class="path" style="opacity: 1; transform-origin: -333px -10.56px; transform: matrix3d(0.87, 0, 0, 0, 0, 0.87, 0, 0, 0, 0, 0.87, 0, 0, 0, 0, 1); animation: 1s linear -0.5808s infinite normal forwards running animate-g7msouemixe; transform-box: view-box;"><path d="M160.40 14.56L160.40 14.56L157.52 30L148 30L157.04-20.24Q154.64-20 153.04-18L153.04-18L151.84-18.96Q154.24-21.84 157.88-21.84Q161.52-21.84 163.52-20Q165.52-18.16 165.52-14.80L165.52-14.80Q165.52-14.16 165.36-12.72L165.36-12.72Q163.52-2.56 161.36 9.20L161.36 9.20Q163.36 4.32 167.12 1.60Q170.88-1.12 175.12-1.12Q179.36-1.12 181.08 0.56Q182.80 2.24 182.80 4.76Q182.80 7.28 181.28 8.88Q179.76 10.48 177.32 10.48Q174.88 10.48 173.56 9.08Q172.24 7.68 172.24 4.92Q172.24 2.16 174.16 0.72L174.16 0.72Q166.48 1.60 161.92 12.08L161.92 12.08Q163.04 11.92 163.84 11.92L163.84 11.92Q168.08 11.92 170.52 13.60Q172.96 15.28 173.68 17.72Q174.40 20.16 174.72 22.60Q175.04 25.04 175.76 26.72Q176.48 28.40 178.32 28.40Q180.16 28.40 181.20 26.88L181.20 26.88L182.40 27.84Q181.84 28.96 179.92 29.84Q178 30.72 175 30.72Q172 30.72 169.72 29.20Q167.44 27.68 166.56 25.40Q165.68 23.12 165.12 20.88L165.12 20.88Q163.60 15.12 160.40 14.56" style="fill: rgb(253, 253, 253);" transform="translate(-498.400,-14.998)"></path></g><g class="path" style="opacity: 1; transform-origin: -298.16px -0.2px; transform: matrix3d(0.87, 0, 0, 0, 0, 0.87, 0, 0, 0, 0, 0.87, 0, 0, 0, 0, 1); animation: 1s linear -0.5544s infinite normal forwards running animate-g7msouemixe; transform-box: view-box;"><path d="M203.76-1.12L203.76-1.12Q213.92-1.12 213.92 6.96L213.92 6.96Q213.92 12 209.16 14.60Q204.40 17.20 195.60 17.28L195.60 17.28Q195.44 20.16 195.44 21.84L195.44 21.84Q195.44 25.44 197.08 27.16Q198.72 28.88 201.20 28.88Q203.68 28.88 205.72 27.92Q207.76 26.96 208.96 25.64Q210.16 24.32 211.04 22.88L211.04 22.88Q212.64 20.24 212.64 19.52L212.64 19.52L214.08 20.16Q213.84 21.44 212.64 23.56Q211.44 25.68 210 27.04Q208.56 28.40 205.76 29.56Q202.96 30.72 199.52 30.72L199.52 30.72Q193.04 30.72 189.72 27.64Q186.40 24.56 186.40 19.20L186.40 19.20Q186.40 9.68 191.12 4.28Q195.84-1.12 203.76-1.12 zM211.92 6.96Q211.92 4.32 210.36 2.60Q208.80 0.88 205.72 0.88Q202.64 0.88 199.72 4.56Q196.80 8.24 195.84 15.44L195.84 15.44Q211.92 15.36 211.92 6.96L211.92 6.96" style="fill: rgb(253, 253, 253);" transform="translate(-498.400,-14.998)"></path></g><g class="path" style="opacity: 1; transform-origin: -245.52px 6.8px; transform: matrix3d(0.87, 0, 0, 0, 0, 0.87, 0, 0, 0, 0, 0.87, 0, 0, 0, 0, 1); animation: 1s linear -0.528s infinite normal forwards running animate-g7msouemixe; transform-box: view-box;"><path d="M240.24 0.48L240.24 0.48Q238.32 0.48 236.24 2.72L236.24 2.72L235.04 1.76Q235.60 0.64 237.52-0.24Q239.44-1.12 241.76-1.12L241.76-1.12Q249.04-1.12 249.04 5.44L249.04 5.44Q249.04 8.24 247.52 14.60Q246 20.96 246 23.20L246 23.20Q246 27.04 249.20 27.04L249.20 27.04Q251.84 27.04 254.36 23.44Q256.88 19.84 258.48 13.76L258.48 13.76L261.12-0.40Q267.04-0.40 269.76-0.88L269.76-0.88L270.80-1.12L265.76 27.20Q264.32 35.44 259.08 40.08Q253.84 44.72 245.52 44.72L245.52 44.72Q240.48 44.72 237.72 43Q234.96 41.28 234.96 38.52Q234.96 35.76 236.64 34.12Q238.32 32.48 241.40 32.48Q244.48 32.48 247.12 33.48Q249.76 34.48 250.96 34.64L250.96 34.64L250.80 36.08Q249.44 35.92 246.88 34.96Q244.32 34 241.80 34Q239.28 34 237.96 35.12Q236.64 36.24 236.64 38.36Q236.64 40.48 238.96 41.80Q241.28 43.12 244.72 43.12L244.72 43.12Q253.04 43.12 254.96 33.12L254.96 33.12L256.96 22.08Q253.60 29.44 246.80 29.44L246.80 29.44Q242.16 29.44 239.64 26.80Q237.12 24.16 237.12 19.36L237.12 19.36Q237.12 16.88 238.60 10.44Q240.08 4 240.24 0.48" style="fill: rgb(253, 253, 253);" transform="translate(-498.400,-14.998)"></path></g><g class="path" style="opacity: 1; transform-origin: -208.8px -0.2px; transform: matrix3d(0.87, 0, 0, 0, 0, 0.87, 0, 0, 0, 0, 0.87, 0, 0, 0, 0, 1); animation: 1s linear -0.5016s infinite normal forwards running animate-g7msouemixe; transform-box: view-box;"><path d="M286.48 30.72Q280.32 30.72 277.12 27.64Q273.92 24.56 273.92 19.88Q273.92 15.20 274.76 11.88Q275.60 8.56 277.52 5.48Q279.44 2.40 283.32 0.64Q287.20-1.12 293-1.12Q298.80-1.12 302.04 1.96Q305.28 5.04 305.28 10.40L305.28 10.40Q305.28 19.52 300.44 25.12Q295.60 30.72 286.48 30.72L286.48 30.72 zM282.96 22.48L282.96 22.48Q282.96 28.88 286.68 28.88Q290.40 28.88 293.32 22.44Q296.24 16 296.24 7.12L296.24 7.12Q296.24 0.40 292.60 0.40Q288.96 0.40 285.96 6.52Q282.96 12.64 282.96 22.48" style="fill: rgb(253, 253, 253);" transform="translate(-498.400,-14.998)"></path></g><g class="path" style="opacity: 1; transform-origin: -171.56px -0.2px; transform: matrix3d(0.87, 0, 0, 0, 0, 0.87, 0, 0, 0, 0, 0.87, 0, 0, 0, 0, 1); animation: 1s linear -0.4752s infinite normal forwards running animate-g7msouemixe; transform-box: view-box;"><path d="M314.16 0.48L314.16 0.48Q312.24 0.48 310.16 2.72L310.16 2.72L308.96 1.76Q309.52 0.64 311.44-0.24Q313.36-1.12 315.68-1.12L315.68-1.12Q322.96-1.12 322.96 5.44L322.96 5.44Q322.96 8.24 321.52 15.44Q320.08 22.64 320.08 24.88L320.08 24.88Q320.08 28.32 323.36 28.32L323.36 28.32Q325.68 28.32 327.88 25.60Q330.08 22.88 331.68 18.08L331.68 18.08L335.04-0.40Q340.96-0.40 343.68-0.88L343.68-0.88L344.72-1.12L339.36 29.12Q341.76 28.88 343.36 26.88L343.36 26.88L344.56 27.84Q342.16 30.72 338.56 30.72Q334.96 30.72 332.96 28.96Q330.96 27.20 330.88 24L330.88 24Q327.52 30.72 320.96 30.72L320.96 30.72Q316.24 30.72 313.60 28.04Q310.96 25.36 310.96 20.64L310.96 20.64Q310.96 18.16 312.48 11.08Q314 4 314.16 0.48" style="fill: rgb(253, 253, 253);" transform="translate(-498.400,-14.998)"></path></g><g class="path" style="opacity: 1; transform-origin: -134.24px -0.56px; transform: matrix3d(0.87, 0, 0, 0, 0, 0.87, 0, 0, 0, 0, 0.87, 0, 0, 0, 0, 1); animation: 1s linear -0.4488s infinite normal forwards running animate-g7msouemixe; transform-box: view-box;"><path d="M350.80 2.72L349.60 1.76Q352-1.12 355.64-1.12Q359.28-1.12 361.28 0.72Q363.28 2.56 363.28 5.92L363.28 5.92L363.28 6.40Q366.88-1.12 372.64-1.12L372.64-1.12Q378.80-1.12 378.80 5.28L378.80 5.28Q378.80 7.92 377.04 10.88Q375.28 13.84 373.52 16.52Q371.76 19.20 371.76 21.28L371.76 21.28L369.84 21.28Q369.84 18.32 373.28 13.28Q376.72 8.24 376.72 5.48Q376.72 2.72 375.64 1.72Q374.56 0.72 372.44 0.72Q370.32 0.72 368.28 2.56Q366.24 4.40 364.88 7.20L364.88 7.20Q362.72 11.36 362 14L362 14L362 14.08L359.12 30L349.52 30L354.80 0.48Q352.40 0.72 350.80 2.72L350.80 2.72" style="fill: rgb(253, 253, 253);" transform="translate(-498.400,-14.998)"></path></g><g class="path" style="opacity: 1; transform-origin: -82.76px -10.56px; transform: matrix3d(0.87, 0, 0, 0, 0, 0.87, 0, 0, 0, 0, 0.87, 0, 0, 0, 0, 1); animation: 1s linear -0.4224s infinite normal forwards running animate-g7msouemixe; transform-box: view-box;"><path d="M425.28 30.72L425.28 30.72Q418.24 30.72 417.60 24.72L417.60 24.72Q414.08 30.72 408.64 30.72Q403.20 30.72 400.32 27.64Q397.44 24.56 397.44 19.20L397.44 19.20Q397.44 9.76 401.92 4.32Q406.40-1.12 413.52-1.12L413.52-1.12Q417.60-1.12 419.84 1.36L419.84 1.36Q420.80 2.64 421.04 3.28L421.04 3.28L425.36-20.24Q422.96-20 421.36-18L421.36-18L420.16-18.96Q422.56-21.84 426.20-21.84Q429.84-21.84 431.84-20Q433.84-18.16 433.84-14.80L433.84-14.80Q433.84-14.16 433.68-12.72L433.68-12.72Q429.76 9.28 426.08 29.12L426.08 29.12Q428.48 28.88 430.08 26.88L430.08 26.88L431.28 27.84Q428.88 30.72 425.28 30.72 zM406.48 22.48Q406.48 26.16 407.24 27.52Q408 28.88 409.64 28.88Q411.28 28.88 412.80 27.76Q414.32 26.64 415.36 24.88L415.36 24.88Q417.28 21.92 418.08 19.84L418.08 19.84L420.40 7.20Q420.24 4.64 418.72 2.52Q417.20 0.40 413.52 0.40L413.52 0.40Q410.96 0.40 408.72 7.92Q406.48 15.44 406.48 22.48L406.48 22.48" style="fill: rgb(253, 253, 253);" transform="translate(-498.400,-14.998)"></path></g><g class="path" style="opacity: 1; transform-origin: -47.36px -0.56px; transform: matrix3d(0.87, 0, 0, 0, 0, 0.87, 0, 0, 0, 0, 0.87, 0, 0, 0, 0, 1); animation: 1s linear -0.396s infinite normal forwards running animate-g7msouemixe; transform-box: view-box;"><path d="M437.68 2.72L436.48 1.76Q438.88-1.12 442.52-1.12Q446.16-1.12 448.16 0.72Q450.16 2.56 450.16 5.92L450.16 5.92L450.16 6.40Q453.76-1.12 459.52-1.12L459.52-1.12Q465.68-1.12 465.68 5.28L465.68 5.28Q465.68 7.92 463.92 10.88Q462.16 13.84 460.40 16.52Q458.64 19.20 458.64 21.28L458.64 21.28L456.72 21.28Q456.72 18.32 460.16 13.28Q463.60 8.24 463.60 5.48Q463.60 2.72 462.52 1.72Q461.44 0.72 459.32 0.72Q457.20 0.72 455.16 2.56Q453.12 4.40 451.76 7.20L451.76 7.20Q449.60 11.36 448.88 14L448.88 14L448.88 14.08L446 30L436.40 30L441.68 0.48Q439.28 0.72 437.68 2.72L437.68 2.72" style="fill: rgb(253, 253, 253);" transform="translate(-498.400,-14.998)"></path></g><g class="path" style="opacity: 1; transform-origin: -17.28px -0.2px; transform: matrix3d(0.87, 0, 0, 0, 0, 0.87, 0, 0, 0, 0, 0.87, 0, 0, 0, 0, 1); animation: 1s linear -0.3696s infinite normal forwards running animate-g7msouemixe; transform-box: view-box;"><path d="M484.64-1.12L484.64-1.12Q494.80-1.12 494.80 6.96L494.80 6.96Q494.80 12 490.04 14.60Q485.28 17.20 476.48 17.28L476.48 17.28Q476.32 20.16 476.32 21.84L476.32 21.84Q476.32 25.44 477.96 27.16Q479.60 28.88 482.08 28.88Q484.56 28.88 486.60 27.92Q488.64 26.96 489.84 25.64Q491.04 24.32 491.92 22.88L491.92 22.88Q493.52 20.24 493.52 19.52L493.52 19.52L494.96 20.16Q494.72 21.44 493.52 23.56Q492.32 25.68 490.88 27.04Q489.44 28.40 486.64 29.56Q483.84 30.72 480.40 30.72L480.40 30.72Q473.92 30.72 470.60 27.64Q467.28 24.56 467.28 19.20L467.28 19.20Q467.28 9.68 472 4.28Q476.72-1.12 484.64-1.12 zM492.80 6.96Q492.80 4.32 491.24 2.60Q489.68 0.88 486.60 0.88Q483.52 0.88 480.60 4.56Q477.68 8.24 476.72 15.44L476.72 15.44Q492.80 15.36 492.80 6.96L492.80 6.96" style="fill: rgb(253, 253, 253);" transform="translate(-498.400,-14.998)"></path></g><g class="path" style="opacity: 1; transform-origin: 18px -0.2px; transform: matrix3d(0.87, 0, 0, 0, 0, 0.87, 0, 0, 0, 0, 0.87, 0, 0, 0, 0, 1); animation: 1s linear -0.3432s infinite normal forwards running animate-g7msouemixe; transform-box: view-box;"><path d="M527.36 30.72L527.36 30.72Q520.32 30.72 519.68 24.56L519.68 24.56Q516.16 30.72 510.80 30.72Q505.44 30.72 502.28 27.48Q499.12 24.24 499.12 18.40L499.12 18.40Q499.12 9.28 503.60 4.08Q508.08-1.12 515.20-1.12L515.20-1.12Q521.04-1.12 522.96 4.40L522.96 4.40Q523.36 2 523.84-0.40L523.84-0.40Q529.76-0.40 532.64-0.88L532.64-0.88L533.68-1.12L528.16 29.12Q530.56 28.88 532.16 26.88L532.16 26.88L533.36 27.84Q530.96 30.72 527.36 30.72 zM508.16 22.48Q508.16 26.08 509.08 27.48Q510 28.88 511.92 28.88Q513.84 28.88 515.84 26.80L515.84 26.80Q518.48 24.08 520.08 19.92L520.08 19.92Q520.32 18.88 521 14.92Q521.68 10.96 522.16 8.40L522.16 8.40Q521.92 5.36 520.48 3.12Q519.04 0.88 516.88 0.88L516.88 0.88Q512.96 0.88 510.56 7.88Q508.16 14.88 508.16 22.48L508.16 22.48" style="fill: rgb(253, 253, 253);" transform="translate(-498.400,-14.998)"></path></g><g class="path" style="opacity: 1; transform-origin: 67.6px -0.2px; transform: matrix3d(0.87, 0, 0, 0, 0, 0.87, 0, 0, 0, 0, 0.87, 0, 0, 0, 0, 1); animation: 1s linear -0.3168s infinite normal forwards running animate-g7msouemixe; transform-box: view-box;"><path d="M568.32 29.12L568.32 29.12Q570.24 29.12 572.32 26.88L572.32 26.88L573.52 27.84Q572.96 28.96 571.04 29.84Q569.12 30.72 566.80 30.72L566.80 30.72Q559.52 30.72 559.52 24.16L559.52 24.16Q559.52 21.36 560.96 14.16Q562.40 6.96 562.40 4.72L562.40 4.72Q562.40 1.28 559.12 1.28L559.12 1.28Q554.16 1.28 550.80 14L550.80 14L547.92 30L538.32 30L543.60 0.48Q541.20 0.72 539.60 2.72L539.60 2.72L538.40 1.76Q540.80-1.12 544.44-1.12Q548.08-1.12 550.08 0.72Q552.08 2.56 552.08 5.92L552.08 5.92L552.08 6.16Q555.20-1.12 561.52-1.12L561.52-1.12Q566-1.12 568.60 1.32Q571.20 3.76 571.44 8.16L571.44 8.16Q572.96 3.76 575.28 1.32Q577.60-1.12 582-1.12Q586.40-1.12 589.04 1.56Q591.68 4.24 591.68 8.96L591.68 8.96Q591.68 11.44 590.16 18.52Q588.64 25.60 588.48 29.12L588.48 29.12Q590.40 29.12 592.48 26.88L592.48 26.88L593.68 27.84Q593.12 28.96 591.20 29.84Q589.28 30.72 586.96 30.72L586.96 30.72Q579.68 30.72 579.68 24.16L579.68 24.16Q579.68 21.36 581.12 14.16Q582.56 6.96 582.56 4.72L582.56 4.72Q582.56 1.28 579.28 1.28L579.28 1.28Q573.52 1.28 570 18.40L570 18.40Q568.48 25.68 568.32 29.12" style="fill: rgb(253, 253, 253);" transform="translate(-498.400,-14.998)"></path></g><g class="path" style="opacity: 1; transform-origin: 110.48px -2.04px; transform: matrix3d(0.87, 0, 0, 0, 0, 0.87, 0, 0, 0, 0, 0.87, 0, 0, 0, 0, 1); animation: 1s linear -0.2904s infinite normal forwards running animate-g7msouemixe; transform-box: view-box;"><path d="M604.96 28.64L604.96 28.64Q612.88 28.64 612.88 16.96L612.88 16.96Q612.88 14.08 612.04 10.16Q611.20 6.24 611.04 5.28L611.04 5.28Q606.16 10.32 600.08 11.36L600.08 11.36L600.08 9.44Q605.84 8.16 610.88 2.88L610.88 2.88L610.88 2.56Q610.88 0.64 611.44-1.20Q612-3.04 612.56-3.92L612.56-3.92L613.12-4.80L615.04-4.80Q615.04-1.28 616.16 1.64Q617.28 4.56 618.64 6.36Q620 8.16 621.12 11.08Q622.24 14 622.24 17.52L622.24 17.52Q622.24 23.20 617.96 26.96Q613.68 30.72 607.68 30.72Q601.68 30.72 598.60 28Q595.52 25.28 595.52 21.72Q595.52 18.16 597.28 16.60Q599.04 15.04 601.44 15.04Q603.84 15.04 605.40 16.60Q606.96 18.16 606.96 20.60Q606.96 23.04 605.44 24.72Q603.92 26.40 601.52 26.40L601.52 26.40Q600.48 26.40 599.36 26.08L599.36 26.08Q601.12 28.64 604.96 28.64" style="fill: rgb(253, 253, 253);" transform="translate(-498.400,-14.998)"></path></g><g class="path" style="opacity: 1; transform-origin: 160px -0.2px; transform: matrix3d(0.87, 0, 0, 0, 0, 0.87, 0, 0, 0, 0, 0.87, 0, 0, 0, 0, 1); animation: 1s linear -0.264s infinite normal forwards running animate-g7msouemixe; transform-box: view-box;"><path d="M663.20 13.28Q661.52 11.60 661.52 9.20Q661.52 6.80 663.20 5.08Q664.88 3.36 667.28 3.36L667.28 3.36Q668 3.36 669.12 3.68L669.12 3.68Q667.60 0.88 663.44 0.88Q659.28 0.88 656.08 6.16Q652.88 11.44 652.88 21.84L652.88 21.84Q652.88 25.44 654.52 27.16Q656.16 28.88 658.64 28.88Q661.12 28.88 663.16 27.92Q665.20 26.96 666.40 25.64Q667.60 24.32 668.48 22.88L668.48 22.88Q670.08 20.24 670.08 19.52L670.08 19.52L671.52 20.16Q671.28 21.44 670.08 23.56Q668.88 25.68 667.44 27.04Q666 28.40 663.20 29.56Q660.40 30.72 656.96 30.72L656.96 30.72Q650.48 30.72 647.16 27.64Q643.84 24.56 643.84 19.20L643.84 19.20Q643.84 9.68 648.60 4.28Q653.36-1.12 661.52-1.12L661.52-1.12Q667.04-1.12 670 1.68Q672.96 4.48 672.96 9.04L672.96 9.04Q672.96 11.92 671.24 13.44Q669.52 14.96 667.20 14.96Q664.88 14.96 663.20 13.28" style="fill: rgb(253, 253, 253);" transform="translate(-498.400,-14.998)"></path></g><g class="path" style="opacity: 1; transform-origin: 193.6px -0.2px; transform: matrix3d(0.87, 0, 0, 0, 0, 0.87, 0, 0, 0, 0, 0.87, 0, 0, 0, 0, 1); animation: 1s linear -0.2376s infinite normal forwards running animate-g7msouemixe; transform-box: view-box;"><path d="M688.88 30.72Q682.72 30.72 679.52 27.64Q676.32 24.56 676.32 19.88Q676.32 15.20 677.16 11.88Q678 8.56 679.92 5.48Q681.84 2.40 685.72 0.64Q689.60-1.12 695.40-1.12Q701.20-1.12 704.44 1.96Q707.68 5.04 707.68 10.40L707.68 10.40Q707.68 19.52 702.84 25.12Q698 30.72 688.88 30.72L688.88 30.72 zM685.36 22.48L685.36 22.48Q685.36 28.88 689.08 28.88Q692.80 28.88 695.72 22.44Q698.64 16 698.64 7.12L698.64 7.12Q698.64 0.40 695 0.40Q691.36 0.40 688.36 6.52Q685.36 12.64 685.36 22.48" style="fill: rgb(253, 253, 253);" transform="translate(-498.400,-14.998)"></path></g><g class="path" style="opacity: 1; transform-origin: 241.36px -0.2px; transform: matrix3d(0.87, 0, 0, 0, 0, 0.87, 0, 0, 0, 0, 0.87, 0, 0, 0, 0, 1); animation: 1s linear -0.2112s infinite normal forwards running animate-g7msouemixe; transform-box: view-box;"><path d="M742.08 29.12L742.08 29.12Q744 29.12 746.08 26.88L746.08 26.88L747.28 27.84Q746.72 28.96 744.80 29.84Q742.88 30.72 740.56 30.72L740.56 30.72Q733.28 30.72 733.28 24.16L733.28 24.16Q733.28 21.36 734.72 14.16Q736.16 6.96 736.16 4.72L736.16 4.72Q736.16 1.28 732.88 1.28L732.88 1.28Q727.92 1.28 724.56 14L724.56 14L721.68 30L712.08 30L717.36 0.48Q714.96 0.72 713.36 2.72L713.36 2.72L712.16 1.76Q714.56-1.12 718.20-1.12Q721.84-1.12 723.84 0.72Q725.84 2.56 725.84 5.92L725.84 5.92L725.84 6.16Q728.96-1.12 735.28-1.12L735.28-1.12Q739.76-1.12 742.36 1.32Q744.96 3.76 745.20 8.16L745.20 8.16Q746.72 3.76 749.04 1.32Q751.36-1.12 755.76-1.12Q760.16-1.12 762.80 1.56Q765.44 4.24 765.44 8.96L765.44 8.96Q765.44 11.44 763.92 18.52Q762.40 25.60 762.24 29.12L762.24 29.12Q764.16 29.12 766.24 26.88L766.24 26.88L767.44 27.84Q766.88 28.96 764.96 29.84Q763.04 30.72 760.72 30.72L760.72 30.72Q753.44 30.72 753.44 24.16L753.44 24.16Q753.44 21.36 754.88 14.16Q756.32 6.96 756.32 4.72L756.32 4.72Q756.32 1.28 753.04 1.28L753.04 1.28Q747.28 1.28 743.76 18.40L743.76 18.40Q742.24 25.68 742.08 29.12" style="fill: rgb(253, 253, 253);" transform="translate(-498.400,-14.998)"></path></g><g class="path" style="opacity: 1; transform-origin: 286.56px -0.2px; transform: matrix3d(0.87, 0, 0, 0, 0, 0.87, 0, 0, 0, 0, 0.87, 0, 0, 0, 0, 1); animation: 1s linear -0.1848s infinite normal forwards running animate-g7msouemixe; transform-box: view-box;"><path d="M788.48-1.12L788.48-1.12Q798.64-1.12 798.64 6.96L798.64 6.96Q798.64 12 793.88 14.60Q789.12 17.20 780.32 17.28L780.32 17.28Q780.16 20.16 780.16 21.84L780.16 21.84Q780.16 25.44 781.80 27.16Q783.44 28.88 785.92 28.88Q788.40 28.88 790.44 27.92Q792.48 26.96 793.68 25.64Q794.88 24.32 795.76 22.88L795.76 22.88Q797.36 20.24 797.36 19.52L797.36 19.52L798.80 20.16Q798.56 21.44 797.36 23.56Q796.16 25.68 794.72 27.04Q793.28 28.40 790.48 29.56Q787.68 30.72 784.24 30.72L784.24 30.72Q777.76 30.72 774.44 27.64Q771.12 24.56 771.12 19.20L771.12 19.20Q771.12 9.68 775.84 4.28Q780.56-1.12 788.48-1.12 zM796.64 6.96Q796.64 4.32 795.08 2.60Q793.52 0.88 790.44 0.88Q787.36 0.88 784.44 4.56Q781.52 8.24 780.56 15.44L780.56 15.44Q796.64 15.36 796.64 6.96L796.64 6.96" style="fill: rgb(253, 253, 253);" transform="translate(-498.400,-14.998)"></path></g><g class="path" style="opacity: 1; transform-origin: 334.16px -6.12px; transform: matrix3d(0.87, 0, 0, 0, 0, 0.87, 0, 0, 0, 0, 0.87, 0, 0, 0, 0, 1); animation: 1s linear -0.1584s infinite normal forwards running animate-g7msouemixe; transform-box: view-box;"><path d="M820.88-0.40L824.96-0.40L827.12-12.24Q833.04-12.24 835.92-12.72L835.92-12.72L836.96-12.96Q835.84-7.36 834.48-0.40L834.48-0.40L844.40-0.40L844.24 1.04L834.24 1.04Q830.24 21.68 830.24 25.92L830.24 25.92Q830.24 28.48 832.96 28.48Q835.68 28.48 837.92 25.04Q840.16 21.60 841.12 17.60L841.12 17.60L842.56 18.08Q839.60 30.72 830.32 30.72L830.32 30.72Q826.48 30.72 823.92 28.60Q821.36 26.48 821.36 22.68Q821.36 18.88 824.64 1.04L824.64 1.04L820.72 1.04L820.88-0.40" style="fill: rgb(253, 253, 253);" transform="translate(-498.400,-14.998)"></path></g><g class="path" style="opacity: 1; transform-origin: 362.4px -0.56px; transform: matrix3d(0.87, 0, 0, 0, 0, 0.87, 0, 0, 0, 0, 0.87, 0, 0, 0, 0, 1); animation: 1s linear -0.132s infinite normal forwards running animate-g7msouemixe; transform-box: view-box;"><path d="M847.44 2.72L846.24 1.76Q848.64-1.12 852.28-1.12Q855.92-1.12 857.92 0.72Q859.92 2.56 859.92 5.92L859.92 5.92L859.92 6.40Q863.52-1.12 869.28-1.12L869.28-1.12Q875.44-1.12 875.44 5.28L875.44 5.28Q875.44 7.92 873.68 10.88Q871.92 13.84 870.16 16.52Q868.40 19.20 868.40 21.28L868.40 21.28L866.48 21.28Q866.48 18.32 869.92 13.28Q873.36 8.24 873.36 5.48Q873.36 2.72 872.28 1.72Q871.20 0.72 869.08 0.72Q866.96 0.72 864.92 2.56Q862.88 4.40 861.52 7.20L861.52 7.20Q859.36 11.36 858.64 14L858.64 14L858.64 14.08L855.76 30L846.16 30L851.44 0.48Q849.04 0.72 847.44 2.72L847.44 2.72" style="fill: rgb(253, 253, 253);" transform="translate(-498.400,-14.998)"></path></g><g class="path" style="opacity: 1; transform-origin: 396.36px -0.2px; transform: matrix3d(0.87, 0, 0, 0, 0, 0.87, 0, 0, 0, 0, 0.87, 0, 0, 0, 0, 1); animation: 1s linear -0.1056s infinite normal forwards running animate-g7msouemixe; transform-box: view-box;"><path d="M882.08 0.48L882.08 0.48Q880.16 0.48 878.08 2.72L878.08 2.72L876.88 1.76Q877.44 0.64 879.36-0.24Q881.28-1.12 883.60-1.12L883.60-1.12Q890.88-1.12 890.88 5.44L890.88 5.44Q890.88 8.24 889.44 15.44Q888 22.64 888 24.88L888 24.88Q888 28.32 891.28 28.32L891.28 28.32Q893.60 28.32 895.80 25.60Q898 22.88 899.60 18.08L899.60 18.08L902.96-0.40Q908.88-0.40 911.60-0.88L911.60-0.88L912.64-1.12L907.28 29.12Q909.68 28.88 911.28 26.88L911.28 26.88L912.48 27.84Q910.08 30.72 906.48 30.72Q902.88 30.72 900.88 28.96Q898.88 27.20 898.80 24L898.80 24Q895.44 30.72 888.88 30.72L888.88 30.72Q884.16 30.72 881.52 28.04Q878.88 25.36 878.88 20.64L878.88 20.64Q878.88 18.16 880.40 11.08Q881.92 4 882.08 0.48" style="fill: rgb(253, 253, 253);" transform="translate(-498.400,-14.998)"></path></g><g class="path" style="opacity: 1; transform-origin: 432.4px -0.2px; transform: matrix3d(0.87, 0, 0, 0, 0, 0.87, 0, 0, 0, 0, 0.87, 0, 0, 0, 0, 1); animation: 1s linear -0.0792s infinite normal forwards running animate-g7msouemixe; transform-box: view-box;"><path d="M934.32-1.12L934.32-1.12Q944.48-1.12 944.48 6.96L944.48 6.96Q944.48 12 939.72 14.60Q934.96 17.20 926.16 17.28L926.16 17.28Q926 20.16 926 21.84L926 21.84Q926 25.44 927.64 27.16Q929.28 28.88 931.76 28.88Q934.24 28.88 936.28 27.92Q938.32 26.96 939.52 25.64Q940.72 24.32 941.60 22.88L941.60 22.88Q943.20 20.24 943.20 19.52L943.20 19.52L944.64 20.16Q944.40 21.44 943.20 23.56Q942 25.68 940.56 27.04Q939.12 28.40 936.32 29.56Q933.52 30.72 930.08 30.72L930.08 30.72Q923.60 30.72 920.28 27.64Q916.96 24.56 916.96 19.20L916.96 19.20Q916.96 9.68 921.68 4.28Q926.40-1.12 934.32-1.12 zM942.48 6.96Q942.48 4.32 940.92 2.60Q939.36 0.88 936.28 0.88Q933.20 0.88 930.28 4.56Q927.36 8.24 926.40 15.44L926.40 15.44Q942.48 15.36 942.48 6.96L942.48 6.96" style="fill: rgb(253, 253, 253);" transform="translate(-498.400,-14.998)"></path></g><g class="path" style="opacity: 1; transform-origin: 456.36px 9.84px; transform: matrix3d(0.87, 0, 0, 0, 0, 0.87, 0, 0, 0, 0, 0.87, 0, 0, 0, 0, 1); animation: 1s linear -0.0528s infinite normal forwards running animate-g7msouemixe; transform-box: view-box;"><path d="M950.64 28.96Q948.96 27.28 948.96 24.88Q948.96 22.48 950.64 20.76Q952.32 19.04 954.72 19.04Q957.12 19.04 958.84 20.76Q960.56 22.48 960.56 24.88Q960.56 27.28 958.84 28.96Q957.12 30.64 954.72 30.64Q952.32 30.64 950.64 28.96" style="fill: rgb(253, 253, 253);" transform="translate(-498.400,-14.998)"></path></g><g class="path" style="opacity: 1; transform-origin: 475.32px 9.84px; transform: matrix3d(0.87, 0, 0, 0, 0, 0.87, 0, 0, 0, 0, 0.87, 0, 0, 0, 0, 1); animation: 1s linear -0.0264s infinite normal forwards running animate-g7msouemixe; transform-box: view-box;"><path d="M969.60 28.96Q967.92 27.28 967.92 24.88Q967.92 22.48 969.60 20.76Q971.28 19.04 973.68 19.04Q976.08 19.04 977.80 20.76Q979.52 22.48 979.52 24.88Q979.52 27.28 977.80 28.96Q976.08 30.64 973.68 30.64Q971.28 30.64 969.60 28.96" style="fill: rgb(253, 253, 253);" transform="translate(-498.400,-14.998)"></path></g><g class="path" style="opacity: 1; transform-origin: 494.28px 9.84px; transform: matrix3d(0.87, 0, 0, 0, 0, 0.87, 0, 0, 0, 0, 0.87, 0, 0, 0, 0, 1); animation: 1s linear 0s infinite normal forwards running animate-g7msouemixe; transform-box: view-box;"><path d="M988.56 28.96Q986.88 27.28 986.88 24.88Q986.88 22.48 988.56 20.76Q990.24 19.04 992.64 19.04Q995.04 19.04 996.76 20.76Q998.48 22.48 998.48 24.88Q998.48 27.28 996.76 28.96Q995.04 30.64 992.64 30.64Q990.24 30.64 988.56 28.96" style="fill: rgb(253, 253, 253);" transform="translate(-498.400,-14.998)"></path></g></g><text dy="0.35em" fill="#fdfdfd" font-family="Sail" font-size="80">Make your dreams come true...</text>
</g>
</g><style type="text/css">@keyframes animate-g7msouemixe { 0.00% {transform: translate(0.00px,0.00px) rotate(0.00deg) scale(0.87, 0.87) skew(0deg, 0.00deg) ;opacity: 1.00;}4.00% {transform: translate(0.00px,0.00px) rotate(0.00deg) scale(0.87, 0.87) ;}8.00% {animation-timing-function: cubic-bezier(0.68,0.62,0.35,0.28);transform: translate(0.00px,0.00px) rotate(0.00deg) scale(0.88, 0.88) ;}14.00% {transform: translate(0.00px,0.00px) rotate(0.00deg) scale(0.90, 0.90) ;}18.00% {transform: translate(0.00px,0.00px) rotate(0.00deg) scale(0.93, 0.93) ;}22.00% {animation-timing-function: cubic-bezier(0.67,0.66,0.33,0.33);transform: translate(0.00px,0.00px) rotate(0.00deg) scale(0.95, 0.95) ;}26.00% {transform: translate(0.00px,0.00px) rotate(0.00deg) scale(0.98, 0.98) ;}30.00% {transform: translate(0.00px,0.00px) rotate(0.00deg) scale(1.00, 1.00) ;}34.00% {animation-timing-function: cubic-bezier(0.66,0.70,0.32,0.37);transform: translate(0.00px,0.00px) rotate(0.00deg) scale(1.03, 1.03) ;}40.00% {animation-timing-function: cubic-bezier(0.65,0.73,0.31,0.40);transform: translate(0.00px,0.00px) rotate(0.00deg) scale(1.05, 1.05) ;}46.00% {animation-timing-function: cubic-bezier(0.60,0.91,0.23,0.62);transform: translate(0.00px,0.00px) rotate(0.00deg) scale(1.07, 1.07) ;}50.00% {transform: translate(0.00px,0.00px) rotate(0.00deg) scale(1.07, 1.07) ;}54.00% {transform: translate(0.00px,0.00px) rotate(0.00deg) scale(1.07, 1.07) ;}58.00% {animation-timing-function: cubic-bezier(0.68,0.62,0.35,0.28);transform: translate(0.00px,0.00px) rotate(0.00deg) scale(1.06, 1.06) ;}64.00% {transform: translate(0.00px,0.00px) rotate(0.00deg) scale(1.04, 1.04) ;}68.00% {transform: translate(0.00px,0.00px) rotate(0.00deg) scale(1.01, 1.01) ;}72.00% {animation-timing-function: cubic-bezier(0.67,0.66,0.33,0.33);transform: translate(0.00px,0.00px) rotate(0.00deg) scale(0.99, 0.99) ;}76.00% {animation-timing-function: cubic-bezier(0.66,0.67,0.33,0.34);transform: translate(0.00px,0.00px) rotate(0.00deg) scale(0.96, 0.96) ;}82.00% {animation-timing-function: cubic-bezier(0.66,0.69,0.32,0.36);transform: translate(0.00px,0.00px) rotate(0.00deg) scale(0.93, 0.93) ;}88.00% {animation-timing-function: cubic-bezier(0.65,0.72,0.32,0.38);transform: translate(0.00px,0.00px) rotate(0.00deg) scale(0.89, 0.89) ;}94.00% {animation-timing-function: cubic-bezier(0.63,0.79,0.29,0.47);transform: translate(0.00px,0.00px) rotate(0.00deg) scale(0.88, 0.88) ;}100.00% {animation-timing-function: cubic-bezier(0.63,0.79,0.29,0.47);transform: translate(0.00px,0.00px) rotate(0.00deg) scale(0.87, 0.87) ;} }</style><!-- [ldio] generated by https://loading.io --></svg>